<svg width="329" height="36" viewBox="0 0 329 36" fill="none" xmlns="http://www.w3.org/2000/svg">
<rect opacity="0.1" width="329" height="36" rx="18" fill="white"/>
<rect x="5" y="5" width="46" height="26" rx="13" fill="#25AB75"/>
<path d="M21.66 22H20.26L17.09 17.21V22H15.69V15.01H17.09L20.26 19.81V15.01H21.66V22ZM25.9435 16.15V17.9H28.2935V19.01H25.9435V20.86H28.5935V22H24.5435V15.01H28.5935V16.15H25.9435ZM40.6958 15.02L38.7458 22H37.0958L35.7858 17.03L34.4158 22L32.7758 22.01L30.8958 15.02H32.3958L33.6258 20.44L35.0458 15.02H36.6058L37.9458 20.41L39.1858 15.02H40.6958Z" fill="white"/>
<path opacity="0.8" d="M73.368 13.636V22H72.276V18.208H68.016V22H66.924V13.636H68.016V17.308H72.276V13.636H73.368ZM76.2966 14.356C76.0886 14.356 75.9126 14.284 75.7686 14.14C75.6246 13.996 75.5526 13.82 75.5526 13.612C75.5526 13.404 75.6246 13.228 75.7686 13.084C75.9126 12.94 76.0886 12.868 76.2966 12.868C76.4966 12.868 76.6646 12.94 76.8006 13.084C76.9446 13.228 77.0166 13.404 77.0166 13.612C77.0166 13.82 76.9446 13.996 76.8006 14.14C76.6646 14.284 76.4966 14.356 76.2966 14.356ZM76.8246 15.424V22H75.7326V15.424H76.8246ZM81.8977 15.316C82.4657 15.316 82.9617 15.44 83.3857 15.688C83.8177 15.936 84.1377 16.248 84.3457 16.624V15.424H85.4497V22.144C85.4497 22.744 85.3217 23.276 85.0657 23.74C84.8097 24.212 84.4417 24.58 83.9617 24.844C83.4897 25.108 82.9377 25.24 82.3057 25.24C81.4417 25.24 80.7217 25.036 80.1457 24.628C79.5697 24.22 79.2297 23.664 79.1257 22.96H80.2057C80.3257 23.36 80.5737 23.68 80.9497 23.92C81.3257 24.168 81.7777 24.292 82.3057 24.292C82.9057 24.292 83.3937 24.104 83.7697 23.728C84.1537 23.352 84.3457 22.824 84.3457 22.144V20.764C84.1297 21.148 83.8097 21.468 83.3857 21.724C82.9617 21.98 82.4657 22.108 81.8977 22.108C81.3137 22.108 80.7817 21.964 80.3017 21.676C79.8297 21.388 79.4577 20.984 79.1857 20.464C78.9137 19.944 78.7777 19.352 78.7777 18.688C78.7777 18.016 78.9137 17.428 79.1857 16.924C79.4577 16.412 79.8297 16.016 80.3017 15.736C80.7817 15.456 81.3137 15.316 81.8977 15.316ZM84.3457 18.7C84.3457 18.204 84.2457 17.772 84.0457 17.404C83.8457 17.036 83.5737 16.756 83.2297 16.564C82.8937 16.364 82.5217 16.264 82.1137 16.264C81.7057 16.264 81.3337 16.36 80.9977 16.552C80.6617 16.744 80.3937 17.024 80.1937 17.392C79.9937 17.76 79.8937 18.192 79.8937 18.688C79.8937 19.192 79.9937 19.632 80.1937 20.008C80.3937 20.376 80.6617 20.66 80.9977 20.86C81.3337 21.052 81.7057 21.148 82.1137 21.148C82.5217 21.148 82.8937 21.052 83.2297 20.86C83.5737 20.66 83.8457 20.376 84.0457 20.008C84.2457 19.632 84.3457 19.196 84.3457 18.7ZM91.0591 15.304C91.5551 15.304 92.0031 15.412 92.4031 15.628C92.8031 15.836 93.1151 16.152 93.3391 16.576C93.5711 17 93.6871 17.516 93.6871 18.124V22H92.6071V18.28C92.6071 17.624 92.4431 17.124 92.1151 16.78C91.7871 16.428 91.3391 16.252 90.7711 16.252C90.1951 16.252 89.7351 16.432 89.3911 16.792C89.0551 17.152 88.8871 17.676 88.8871 18.364V22H87.7951V13.12H88.8871V16.36C89.1031 16.024 89.3991 15.764 89.7751 15.58C90.1591 15.396 90.5871 15.304 91.0591 15.304ZM100.762 13.636V22H99.6701V13.636H100.762ZM106.327 15.304C107.127 15.304 107.775 15.548 108.271 16.036C108.767 16.516 109.015 17.212 109.015 18.124V22H107.935V18.28C107.935 17.624 107.771 17.124 107.443 16.78C107.115 16.428 106.667 16.252 106.099 16.252C105.523 16.252 105.063 16.432 104.719 16.792C104.383 17.152 104.215 17.676 104.215 18.364V22H103.123V15.424H104.215V16.36C104.431 16.024 104.723 15.764 105.091 15.58C105.467 15.396 105.879 15.304 106.327 15.304ZM112.631 16.324V20.2C112.631 20.52 112.699 20.748 112.835 20.884C112.971 21.012 113.207 21.076 113.543 21.076H114.347V22H113.363C112.755 22 112.299 21.86 111.995 21.58C111.691 21.3 111.539 20.84 111.539 20.2V16.324H110.687V15.424H111.539V13.768H112.631V15.424H114.347V16.324H112.631ZM122.17 18.46C122.17 18.668 122.158 18.888 122.134 19.12H116.878C116.918 19.768 117.138 20.276 117.538 20.644C117.946 21.004 118.438 21.184 119.014 21.184C119.486 21.184 119.878 21.076 120.19 20.86C120.51 20.636 120.734 20.34 120.862 19.972H122.038C121.862 20.604 121.51 21.12 120.982 21.52C120.454 21.912 119.798 22.108 119.014 22.108C118.39 22.108 117.83 21.968 117.334 21.688C116.846 21.408 116.462 21.012 116.182 20.5C115.902 19.98 115.762 19.38 115.762 18.7C115.762 18.02 115.898 17.424 116.17 16.912C116.442 16.4 116.822 16.008 117.31 15.736C117.806 15.456 118.374 15.316 119.014 15.316C119.638 15.316 120.19 15.452 120.67 15.724C121.15 15.996 121.518 16.372 121.774 16.852C122.038 17.324 122.17 17.86 122.17 18.46ZM121.042 18.232C121.042 17.816 120.95 17.46 120.766 17.164C120.582 16.86 120.33 16.632 120.01 16.48C119.698 16.32 119.35 16.24 118.966 16.24C118.414 16.24 117.942 16.416 117.55 16.768C117.166 17.12 116.946 17.608 116.89 18.232H121.042ZM127.316 15.304C128.116 15.304 128.764 15.548 129.26 16.036C129.756 16.516 130.004 17.212 130.004 18.124V22H128.924V18.28C128.924 17.624 128.76 17.124 128.432 16.78C128.104 16.428 127.656 16.252 127.088 16.252C126.512 16.252 126.052 16.432 125.708 16.792C125.372 17.152 125.204 17.676 125.204 18.364V22H124.112V15.424H125.204V16.36C125.42 16.024 125.712 15.764 126.08 15.58C126.456 15.396 126.868 15.304 127.316 15.304ZM134.615 22.108C134.111 22.108 133.659 22.024 133.259 21.856C132.859 21.68 132.543 21.44 132.311 21.136C132.079 20.824 131.951 20.468 131.927 20.068H133.055C133.087 20.396 133.239 20.664 133.511 20.872C133.791 21.08 134.155 21.184 134.603 21.184C135.019 21.184 135.347 21.092 135.587 20.908C135.827 20.724 135.947 20.492 135.947 20.212C135.947 19.924 135.819 19.712 135.563 19.576C135.307 19.432 134.911 19.292 134.375 19.156C133.887 19.028 133.487 18.9 133.175 18.772C132.871 18.636 132.607 18.44 132.383 18.184C132.167 17.92 132.059 17.576 132.059 17.152C132.059 16.816 132.159 16.508 132.359 16.228C132.559 15.948 132.843 15.728 133.211 15.568C133.579 15.4 133.999 15.316 134.471 15.316C135.199 15.316 135.787 15.5 136.235 15.868C136.683 16.236 136.923 16.74 136.955 17.38H135.863C135.839 17.036 135.699 16.76 135.443 16.552C135.195 16.344 134.859 16.24 134.435 16.24C134.043 16.24 133.731 16.324 133.499 16.492C133.267 16.66 133.151 16.88 133.151 17.152C133.151 17.368 133.219 17.548 133.355 17.692C133.499 17.828 133.675 17.94 133.883 18.028C134.099 18.108 134.395 18.2 134.771 18.304C135.243 18.432 135.627 18.56 135.923 18.688C136.219 18.808 136.471 18.992 136.679 19.24C136.895 19.488 137.007 19.812 137.015 20.212C137.015 20.572 136.915 20.896 136.715 21.184C136.515 21.472 136.231 21.7 135.863 21.868C135.503 22.028 135.087 22.108 134.615 22.108ZM139.621 14.356C139.413 14.356 139.237 14.284 139.093 14.14C138.949 13.996 138.877 13.82 138.877 13.612C138.877 13.404 138.949 13.228 139.093 13.084C139.237 12.94 139.413 12.868 139.621 12.868C139.821 12.868 139.989 12.94 140.125 13.084C140.269 13.228 140.341 13.404 140.341 13.612C140.341 13.82 140.269 13.996 140.125 14.14C139.989 14.284 139.821 14.356 139.621 14.356ZM140.149 15.424V22H139.057V15.424H140.149ZM143.842 16.324V20.2C143.842 20.52 143.91 20.748 144.046 20.884C144.182 21.012 144.418 21.076 144.754 21.076H145.558V22H144.574C143.966 22 143.51 21.86 143.206 21.58C142.902 21.3 142.75 20.84 142.75 20.2V16.324H141.898V15.424H142.75V13.768H143.842V15.424H145.558V16.324H143.842ZM153.045 15.424L149.085 25.096H147.957L149.253 21.928L146.601 15.424H147.813L149.877 20.752L151.917 15.424H153.045ZM167.102 15.424L165.05 22H163.922L162.338 16.78L160.754 22H159.626L157.562 15.424H158.678L160.19 20.944L161.822 15.424H162.938L164.534 20.956L166.022 15.424H167.102ZM171.554 22.108C170.938 22.108 170.378 21.968 169.874 21.688C169.378 21.408 168.986 21.012 168.698 20.5C168.418 19.98 168.278 19.38 168.278 18.7C168.278 18.028 168.422 17.436 168.71 16.924C169.006 16.404 169.406 16.008 169.91 15.736C170.414 15.456 170.978 15.316 171.602 15.316C172.226 15.316 172.79 15.456 173.294 15.736C173.798 16.008 174.194 16.4 174.482 16.912C174.778 17.424 174.926 18.02 174.926 18.7C174.926 19.38 174.774 19.98 174.47 20.5C174.174 21.012 173.77 21.408 173.258 21.688C172.746 21.968 172.178 22.108 171.554 22.108ZM171.554 21.148C171.946 21.148 172.314 21.056 172.658 20.872C173.002 20.688 173.278 20.412 173.486 20.044C173.702 19.676 173.81 19.228 173.81 18.7C173.81 18.172 173.706 17.724 173.498 17.356C173.29 16.988 173.018 16.716 172.682 16.54C172.346 16.356 171.982 16.264 171.59 16.264C171.19 16.264 170.822 16.356 170.486 16.54C170.158 16.716 169.894 16.988 169.694 17.356C169.494 17.724 169.394 18.172 169.394 18.7C169.394 19.236 169.49 19.688 169.682 20.056C169.882 20.424 170.146 20.7 170.474 20.884C170.802 21.06 171.162 21.148 171.554 21.148ZM177.954 16.492C178.146 16.116 178.418 15.824 178.77 15.616C179.13 15.408 179.566 15.304 180.078 15.304V16.432H179.79C178.566 16.432 177.954 17.096 177.954 18.424V22H176.862V15.424H177.954V16.492ZM185.51 22L182.93 19.096V22H181.838V13.12H182.93V18.34L185.462 15.424H186.986L183.89 18.7L186.998 22H185.51ZM191.382 22.108C190.766 22.108 190.206 21.968 189.702 21.688C189.206 21.408 188.814 21.012 188.526 20.5C188.246 19.98 188.106 19.38 188.106 18.7C188.106 18.028 188.25 17.436 188.538 16.924C188.834 16.404 189.234 16.008 189.738 15.736C190.242 15.456 190.806 15.316 191.43 15.316C192.054 15.316 192.618 15.456 193.122 15.736C193.626 16.008 194.022 16.4 194.31 16.912C194.606 17.424 194.754 18.02 194.754 18.7C194.754 19.38 194.602 19.98 194.298 20.5C194.002 21.012 193.598 21.408 193.086 21.688C192.574 21.968 192.006 22.108 191.382 22.108ZM191.382 21.148C191.774 21.148 192.142 21.056 192.486 20.872C192.83 20.688 193.106 20.412 193.314 20.044C193.53 19.676 193.638 19.228 193.638 18.7C193.638 18.172 193.534 17.724 193.326 17.356C193.118 16.988 192.846 16.716 192.51 16.54C192.174 16.356 191.81 16.264 191.418 16.264C191.018 16.264 190.65 16.356 190.314 16.54C189.986 16.716 189.722 16.988 189.522 17.356C189.322 17.724 189.222 18.172 189.222 18.7C189.222 19.236 189.318 19.688 189.51 20.056C189.71 20.424 189.974 20.7 190.302 20.884C190.63 21.06 190.99 21.148 191.382 21.148ZM202.522 15.424V22H201.43V21.028C201.222 21.364 200.93 21.628 200.554 21.82C200.186 22.004 199.778 22.096 199.33 22.096C198.818 22.096 198.358 21.992 197.95 21.784C197.542 21.568 197.218 21.248 196.978 20.824C196.746 20.4 196.63 19.884 196.63 19.276V15.424H197.71V19.132C197.71 19.78 197.874 20.28 198.202 20.632C198.53 20.976 198.978 21.148 199.546 21.148C200.13 21.148 200.59 20.968 200.926 20.608C201.262 20.248 201.43 19.724 201.43 19.036V15.424H202.522ZM206.197 16.324V20.2C206.197 20.52 206.265 20.748 206.401 20.884C206.537 21.012 206.773 21.076 207.109 21.076H207.913V22H206.929C206.321 22 205.865 21.86 205.561 21.58C205.257 21.3 205.105 20.84 205.105 20.2V16.324H204.253V15.424H205.105V13.768H206.197V15.424H207.913V16.324H206.197ZM214.768 16.324V20.2C214.768 20.52 214.836 20.748 214.972 20.884C215.108 21.012 215.344 21.076 215.68 21.076H216.484V22H215.5C214.892 22 214.436 21.86 214.132 21.58C213.828 21.3 213.676 20.84 213.676 20.2V16.324H212.824V15.424H213.676V13.768H214.768V15.424H216.484V16.324H214.768ZM221.175 22.108C220.559 22.108 219.999 21.968 219.495 21.688C218.999 21.408 218.607 21.012 218.319 20.5C218.039 19.98 217.899 19.38 217.899 18.7C217.899 18.028 218.043 17.436 218.331 16.924C218.627 16.404 219.027 16.008 219.531 15.736C220.035 15.456 220.599 15.316 221.223 15.316C221.847 15.316 222.411 15.456 222.915 15.736C223.419 16.008 223.815 16.4 224.103 16.912C224.399 17.424 224.547 18.02 224.547 18.7C224.547 19.38 224.395 19.98 224.091 20.5C223.795 21.012 223.391 21.408 222.879 21.688C222.367 21.968 221.799 22.108 221.175 22.108ZM221.175 21.148C221.567 21.148 221.935 21.056 222.279 20.872C222.623 20.688 222.899 20.412 223.107 20.044C223.323 19.676 223.431 19.228 223.431 18.7C223.431 18.172 223.327 17.724 223.119 17.356C222.911 16.988 222.639 16.716 222.303 16.54C221.967 16.356 221.603 16.264 221.211 16.264C220.811 16.264 220.443 16.356 220.107 16.54C219.779 16.716 219.515 16.988 219.315 17.356C219.115 17.724 219.015 18.172 219.015 18.7C219.015 19.236 219.111 19.688 219.303 20.056C219.503 20.424 219.767 20.7 220.095 20.884C220.423 21.06 220.783 21.148 221.175 21.148ZM231.274 16.648C231.498 16.256 231.826 15.936 232.258 15.688C232.69 15.44 233.182 15.316 233.734 15.316C234.326 15.316 234.858 15.456 235.33 15.736C235.802 16.016 236.174 16.412 236.446 16.924C236.718 17.428 236.854 18.016 236.854 18.688C236.854 19.352 236.718 19.944 236.446 20.464C236.174 20.984 235.798 21.388 235.318 21.676C234.846 21.964 234.318 22.108 233.734 22.108C233.166 22.108 232.666 21.984 232.234 21.736C231.81 21.488 231.49 21.172 231.274 20.788V22H230.182V13.12H231.274V16.648ZM235.738 18.688C235.738 18.192 235.638 17.76 235.438 17.392C235.238 17.024 234.966 16.744 234.622 16.552C234.286 16.36 233.914 16.264 233.506 16.264C233.106 16.264 232.734 16.364 232.39 16.564C232.054 16.756 231.782 17.04 231.574 17.416C231.374 17.784 231.274 18.212 231.274 18.7C231.274 19.196 231.374 19.632 231.574 20.008C231.782 20.376 232.054 20.66 232.39 20.86C232.734 21.052 233.106 21.148 233.506 21.148C233.914 21.148 234.286 21.052 234.622 20.86C234.966 20.66 235.238 20.376 235.438 20.008C235.638 19.632 235.738 19.192 235.738 18.688ZM244.623 15.424V22H243.531V21.028C243.323 21.364 243.031 21.628 242.655 21.82C242.287 22.004 241.879 22.096 241.431 22.096C240.919 22.096 240.459 21.992 240.051 21.784C239.643 21.568 239.319 21.248 239.079 20.824C238.847 20.4 238.731 19.884 238.731 19.276V15.424H239.811V19.132C239.811 19.78 239.975 20.28 240.303 20.632C240.631 20.976 241.079 21.148 241.647 21.148C242.231 21.148 242.691 20.968 243.027 20.608C243.363 20.248 243.531 19.724 243.531 19.036V15.424H244.623ZM248.059 16.492C248.251 16.116 248.523 15.824 248.875 15.616C249.235 15.408 249.671 15.304 250.183 15.304V16.432H249.895C248.671 16.432 248.059 17.096 248.059 18.424V22H246.967V15.424H248.059V16.492ZM255.148 15.304C255.948 15.304 256.596 15.548 257.092 16.036C257.588 16.516 257.836 17.212 257.836 18.124V22H256.756V18.28C256.756 17.624 256.592 17.124 256.264 16.78C255.936 16.428 255.488 16.252 254.92 16.252C254.344 16.252 253.884 16.432 253.54 16.792C253.204 17.152 253.036 17.676 253.036 18.364V22H251.944V15.424H253.036V16.36C253.252 16.024 253.544 15.764 253.912 15.58C254.288 15.396 254.7 15.304 255.148 15.304ZM263.411 18.7C263.411 18.02 263.547 17.428 263.819 16.924C264.091 16.412 264.467 16.016 264.947 15.736C265.435 15.456 265.991 15.316 266.615 15.316C267.423 15.316 268.087 15.512 268.607 15.904C269.135 16.296 269.483 16.84 269.651 17.536H268.475C268.363 17.136 268.143 16.82 267.815 16.588C267.495 16.356 267.095 16.24 266.615 16.24C265.991 16.24 265.487 16.456 265.103 16.888C264.719 17.312 264.527 17.916 264.527 18.7C264.527 19.492 264.719 20.104 265.103 20.536C265.487 20.968 265.991 21.184 266.615 21.184C267.095 21.184 267.495 21.072 267.815 20.848C268.135 20.624 268.355 20.304 268.475 19.888H269.651C269.475 20.56 269.123 21.1 268.595 21.508C268.067 21.908 267.407 22.108 266.615 22.108C265.991 22.108 265.435 21.968 264.947 21.688C264.467 21.408 264.091 21.012 263.819 20.5C263.547 19.988 263.411 19.388 263.411 18.7ZM271.2 18.688C271.2 18.016 271.336 17.428 271.608 16.924C271.88 16.412 272.252 16.016 272.724 15.736C273.204 15.456 273.736 15.316 274.32 15.316C274.896 15.316 275.396 15.44 275.82 15.688C276.244 15.936 276.56 16.248 276.768 16.624V15.424H277.872V22H276.768V20.776C276.552 21.16 276.228 21.48 275.796 21.736C275.372 21.984 274.876 22.108 274.308 22.108C273.724 22.108 273.196 21.964 272.724 21.676C272.252 21.388 271.88 20.984 271.608 20.464C271.336 19.944 271.2 19.352 271.2 18.688ZM276.768 18.7C276.768 18.204 276.668 17.772 276.468 17.404C276.268 17.036 275.996 16.756 275.652 16.564C275.316 16.364 274.944 16.264 274.536 16.264C274.128 16.264 273.756 16.36 273.42 16.552C273.084 16.744 272.816 17.024 272.616 17.392C272.416 17.76 272.316 18.192 272.316 18.688C272.316 19.192 272.416 19.632 272.616 20.008C272.816 20.376 273.084 20.66 273.42 20.86C273.756 21.052 274.128 21.148 274.536 21.148C274.944 21.148 275.316 21.052 275.652 20.86C275.996 20.66 276.268 20.376 276.468 20.008C276.668 19.632 276.768 19.196 276.768 18.7ZM281.309 13.12V22H280.217V13.12H281.309ZM286.538 22.108C285.922 22.108 285.362 21.968 284.858 21.688C284.362 21.408 283.97 21.012 283.682 20.5C283.402 19.98 283.262 19.38 283.262 18.7C283.262 18.028 283.406 17.436 283.694 16.924C283.99 16.404 284.39 16.008 284.894 15.736C285.398 15.456 285.962 15.316 286.586 15.316C287.21 15.316 287.774 15.456 288.278 15.736C288.782 16.008 289.178 16.4 289.466 16.912C289.762 17.424 289.91 18.02 289.91 18.7C289.91 19.38 289.758 19.98 289.454 20.5C289.158 21.012 288.754 21.408 288.242 21.688C287.73 21.968 287.162 22.108 286.538 22.108ZM286.538 21.148C286.93 21.148 287.298 21.056 287.642 20.872C287.986 20.688 288.262 20.412 288.47 20.044C288.686 19.676 288.794 19.228 288.794 18.7C288.794 18.172 288.69 17.724 288.482 17.356C288.274 16.988 288.002 16.716 287.666 16.54C287.33 16.356 286.966 16.264 286.574 16.264C286.174 16.264 285.806 16.356 285.47 16.54C285.142 16.716 284.878 16.988 284.678 17.356C284.478 17.724 284.378 18.172 284.378 18.7C284.378 19.236 284.474 19.688 284.666 20.056C284.866 20.424 285.13 20.7 285.458 20.884C285.786 21.06 286.146 21.148 286.538 21.148ZM292.938 16.492C293.13 16.116 293.402 15.824 293.754 15.616C294.114 15.408 294.55 15.304 295.062 15.304V16.432H294.774C293.55 16.432 292.938 17.096 292.938 18.424V22H291.846V15.424H292.938V16.492ZM297.386 14.356C297.178 14.356 297.002 14.284 296.858 14.14C296.714 13.996 296.642 13.82 296.642 13.612C296.642 13.404 296.714 13.228 296.858 13.084C297.002 12.94 297.178 12.868 297.386 12.868C297.586 12.868 297.754 12.94 297.89 13.084C298.034 13.228 298.106 13.404 298.106 13.612C298.106 13.82 298.034 13.996 297.89 14.14C297.754 14.284 297.586 14.356 297.386 14.356ZM297.914 15.424V22H296.822V15.424H297.914ZM306.276 18.46C306.276 18.668 306.264 18.888 306.24 19.12H300.984C301.024 19.768 301.244 20.276 301.644 20.644C302.052 21.004 302.544 21.184 303.12 21.184C303.592 21.184 303.984 21.076 304.296 20.86C304.616 20.636 304.84 20.34 304.968 19.972H306.144C305.968 20.604 305.616 21.12 305.088 21.52C304.56 21.912 303.904 22.108 303.12 22.108C302.496 22.108 301.936 21.968 301.44 21.688C300.952 21.408 300.568 21.012 300.288 20.5C300.008 19.98 299.868 19.38 299.868 18.7C299.868 18.02 300.004 17.424 300.276 16.912C300.548 16.4 300.928 16.008 301.416 15.736C301.912 15.456 302.48 15.316 303.12 15.316C303.744 15.316 304.296 15.452 304.776 15.724C305.256 15.996 305.624 16.372 305.88 16.852C306.144 17.324 306.276 17.86 306.276 18.46ZM305.148 18.232C305.148 17.816 305.056 17.46 304.872 17.164C304.688 16.86 304.436 16.632 304.116 16.48C303.804 16.32 303.456 16.24 303.072 16.24C302.52 16.24 302.048 16.416 301.656 16.768C301.272 17.12 301.052 17.608 300.996 18.232H305.148ZM310.545 22.108C310.041 22.108 309.589 22.024 309.189 21.856C308.789 21.68 308.473 21.44 308.241 21.136C308.009 20.824 307.881 20.468 307.857 20.068H308.985C309.017 20.396 309.169 20.664 309.441 20.872C309.721 21.08 310.085 21.184 310.533 21.184C310.949 21.184 311.277 21.092 311.517 20.908C311.757 20.724 311.877 20.492 311.877 20.212C311.877 19.924 311.749 19.712 311.493 19.576C311.237 19.432 310.841 19.292 310.305 19.156C309.817 19.028 309.417 18.9 309.105 18.772C308.801 18.636 308.537 18.44 308.313 18.184C308.097 17.92 307.989 17.576 307.989 17.152C307.989 16.816 308.089 16.508 308.289 16.228C308.489 15.948 308.773 15.728 309.141 15.568C309.509 15.4 309.929 15.316 310.401 15.316C311.129 15.316 311.717 15.5 312.165 15.868C312.613 16.236 312.853 16.74 312.885 17.38H311.793C311.769 17.036 311.629 16.76 311.373 16.552C311.125 16.344 310.789 16.24 310.365 16.24C309.973 16.24 309.661 16.324 309.429 16.492C309.197 16.66 309.081 16.88 309.081 17.152C309.081 17.368 309.149 17.548 309.285 17.692C309.429 17.828 309.605 17.94 309.813 18.028C310.029 18.108 310.325 18.2 310.701 18.304C311.173 18.432 311.557 18.56 311.853 18.688C312.149 18.808 312.401 18.992 312.609 19.24C312.825 19.488 312.937 19.812 312.945 20.212C312.945 20.572 312.845 20.896 312.645 21.184C312.445 21.472 312.161 21.7 311.793 21.868C311.433 22.028 311.017 22.108 310.545 22.108Z" fill="white"/>
</svg>
